<svg xmlns="http://www.w3.org/2000/svg" width="24" height="24" viewBox="0 0 24 24" fill="none" stroke="#4b5563" stroke-width="2" stroke-linecap="round" stroke-linejoin="round">
  <path d="M12 15.5a3.5 3.5 0 1 0 0-7 3.5 3.5 0 0 0 0 7Z"/>
  <path d="M19.4 15a1.7 1.7 0 0 0 .34 1.88l.06.06a2 2 0 1 1-2.83 2.83l-.06-.06A1.7 1.7 0 0 0 15 19.4a1.7 1.7 0 0 0-1 .6l-.03.05a2 2 0 1 1-3.94 0L10 20a1.7 1.7 0 0 0-1-.6 1.7 1.7 0 0 0-1.88.34l-.06.06a2 2 0 1 1-2.83-2.83l.06-.06A1.7 1.7 0 0 0 4.6 15a1.7 1.7 0 0 0-.6-1l-.05-.03a2 2 0 1 1 0-3.94L4 10a1.7 1.7 0 0 0 .6-1 1.7 1.7 0 0 0-.34-1.88l-.06-.06a2 2 0 1 1 2.83-2.83l.06.06A1.7 1.7 0 0 0 9 4.6a1.7 1.7 0 0 0 1-.6l.03-.05a2 2 0 1 1 3.94 0L14 4a1.7 1.7 0 0 0 1 .6 1.7 1.7 0 0 0 1.88-.34l.06-.06a2 2 0 1 1 2.83 2.83l-.06.06A1.7 1.7 0 0 0 19.4 9c.18.37.38.7.6 1l.05.03a2 2 0 1 1 0 3.94L20 14c-.22.3-.42.63-.6 1Z"/>
</svg>
